<svg width="149" height="131" viewBox="0 0 149 131" fill="none" xmlns="http://www.w3.org/2000/svg">
<g clip-path="url(#clip0_5_114)" filter="url(#filter0_d_5_114)">
<path d="M120.898 101.962C120.908 101.952 120.908 101.932 120.918 101.922C120.938 101.892 120.951 101.858 120.958 101.822C120.968 101.792 120.978 101.752 120.988 101.722C120.997 101.69 121 101.656 120.998 101.622C120.998 101.602 121.008 101.592 121.008 101.572C121.008 101.552 120.998 101.542 120.998 101.522C120.998 101.502 120.988 101.452 120.988 101.422C120.988 101.392 120.968 101.352 120.958 101.322C120.948 101.288 120.934 101.255 120.918 101.222C120.908 101.212 120.908 101.192 120.898 101.182L109.682 81.7573H132.104C132.226 81.7536 132.346 81.7228 132.454 81.6674C132.484 81.6474 132.504 81.6274 132.534 81.6074C132.615 81.5566 132.683 81.4882 132.734 81.4074C132.744 81.3874 132.764 81.3774 132.784 81.3574L144.14 61.6925C144.15 61.6825 144.15 61.6625 144.16 61.6525C144.179 61.6219 144.193 61.588 144.2 61.5525C144.21 61.5225 144.22 61.4825 144.23 61.4525C144.238 61.4199 144.242 61.3862 144.24 61.3526C144.24 61.3326 144.25 61.3226 144.25 61.3026C144.25 61.2826 144.24 61.2726 144.24 61.2526C144.24 61.2326 144.23 61.1826 144.23 61.1526C144.23 61.1226 144.21 61.0826 144.2 61.0526C144.189 61.0183 144.176 60.9849 144.16 60.9527C144.15 60.9427 144.15 60.9227 144.14 60.9127L132.784 41.2477C132.767 41.2223 132.747 41.1989 132.724 41.1777C132.693 41.1329 132.656 41.0926 132.614 41.0578C132.572 41.0255 132.529 40.9954 132.484 40.9678C132.444 40.9419 132.4 40.9217 132.354 40.9078C132.303 40.8882 132.249 40.8781 132.194 40.8778C132.164 40.8778 132.134 40.8578 132.104 40.8578H109.682L120.898 21.4328C120.908 21.4228 120.908 21.4028 120.918 21.3928C120.938 21.3622 120.951 21.3283 120.958 21.2928C120.968 21.2628 120.978 21.2229 120.988 21.1929C120.997 21.1602 121 21.1265 120.998 21.0929C120.998 21.0729 121.008 21.0629 121.008 21.0429C121.008 21.0229 120.998 21.0129 120.998 20.9929C120.998 20.9729 120.988 20.9229 120.988 20.8929C120.988 20.8629 120.968 20.823 120.958 20.793C120.948 20.7587 120.934 20.7252 120.918 20.693C120.908 20.683 120.908 20.663 120.898 20.653L109.552 0.988045C109.535 0.962659 109.515 0.9392 109.492 0.918063C109.462 0.875693 109.429 0.835596 109.392 0.798093C109.351 0.765778 109.307 0.735743 109.262 0.708117C109.222 0.682191 109.178 0.662002 109.132 0.648132C109.081 0.628558 109.027 0.618396 108.972 0.61814C108.942 0.61814 108.913 0.598145 108.883 0.598145H86.1806C86.1606 0.598145 86.1506 0.608142 86.1306 0.608142C86.1106 0.608142 86.0606 0.61814 86.0306 0.61814L85.9207 0.648132C85.889 0.657192 85.8586 0.670653 85.8306 0.688122C85.8189 0.696073 85.8048 0.699615 85.7907 0.698119L85.7607 0.728111C85.7323 0.745622 85.7055 0.765701 85.6808 0.788096C85.6516 0.812178 85.6248 0.838956 85.6007 0.868076C85.5807 0.898068 85.5608 0.918063 85.5408 0.948055C85.5285 0.959448 85.5183 0.973 85.5108 0.988045L74.2948 20.4131L63.0788 0.988045C63.0613 0.962659 63.0411 0.9392 63.0187 0.918063C62.9848 0.87563 62.9481 0.835547 62.9088 0.798093C62.8712 0.768019 62.831 0.741259 62.7888 0.718114C62.7485 0.692188 62.7048 0.672 62.6589 0.65813C62.6081 0.63767 62.5537 0.627477 62.4989 0.628138C62.4689 0.628138 62.4389 0.608142 62.409 0.608142H39.707C39.687 0.608142 39.677 0.61814 39.657 0.61814C39.637 0.61814 39.587 0.628138 39.557 0.628138L39.4471 0.65813C39.4154 0.667189 39.385 0.68065 39.357 0.698119C39.3453 0.706071 39.3312 0.709613 39.3171 0.708117C39.3057 0.720466 39.2921 0.73063 39.2771 0.738109C39.2487 0.75562 39.2219 0.775698 39.1972 0.798093C39.1681 0.822174 39.1412 0.848954 39.1171 0.878073C39.0971 0.908066 39.0772 0.928061 39.0572 0.958053C39.0449 0.969445 39.0347 0.982998 39.0272 0.998043L27.6812 20.663C27.6668 20.6913 27.6566 20.7217 27.6512 20.753C27.6301 20.8014 27.6133 20.8516 27.6012 20.9029C27.5878 21.0025 27.5878 21.1033 27.6012 21.2029C27.6133 21.2542 27.6301 21.3044 27.6512 21.3528C27.6566 21.3841 27.6668 21.4145 27.6812 21.4428L38.8972 40.8678H16.4752C16.4552 40.8678 16.4452 40.8778 16.4252 40.8778C16.4052 40.8778 16.3552 40.8878 16.3252 40.8878L16.2153 40.9178C16.1836 40.9269 16.1532 40.9403 16.1252 40.9578C16.1152 40.9678 16.0953 40.9678 16.0853 40.9778L16.0553 41.0078C16.0269 41.0253 16.0002 41.0454 15.9754 41.0678C15.9463 41.0919 15.9194 41.1186 15.8953 41.1478C15.8753 41.1777 15.8554 41.1977 15.8354 41.2277C15.8231 41.2391 15.8129 41.2527 15.8054 41.2677L4.44943 60.9327C4.43499 60.961 4.42485 60.9913 4.41941 61.0227C4.39828 61.071 4.3815 61.1212 4.36938 61.1726C4.35604 61.2721 4.35604 61.373 4.36938 61.4725C4.3815 61.5239 4.39828 61.5741 4.41941 61.6225C4.42485 61.6538 4.43499 61.6842 4.44943 61.7125L15.8054 81.3774L15.8354 81.4074C15.8556 81.4397 15.879 81.4699 15.9053 81.4974C15.9453 81.5374 15.9853 81.5674 16.0253 81.6074C16.0553 81.6274 16.0654 81.6574 16.0953 81.6674C16.1071 81.6753 16.1212 81.6789 16.1352 81.6774C16.2438 81.7328 16.3633 81.7636 16.4851 81.7673H38.9072L27.7012 101.192C27.6868 101.221 27.6767 101.251 27.6712 101.282C27.6501 101.331 27.6333 101.381 27.6212 101.432C27.6078 101.532 27.6078 101.633 27.6212 101.732C27.6333 101.784 27.6501 101.834 27.6712 101.882C27.6767 101.913 27.6868 101.944 27.7012 101.972L39.0472 121.637L39.0772 121.667C39.0974 121.699 39.1208 121.73 39.1471 121.757C39.1871 121.797 39.2271 121.827 39.2671 121.867C39.2971 121.887 39.3072 121.917 39.3371 121.927C39.3489 121.935 39.363 121.939 39.377 121.937C39.4856 121.993 39.6051 122.023 39.7269 122.027H62.429C62.5508 122.023 62.6703 121.993 62.7788 121.937C62.8088 121.917 62.8288 121.897 62.8587 121.877C62.9395 121.826 63.008 121.758 63.0587 121.677C63.0687 121.657 63.0887 121.647 63.1087 121.627L74.3248 102.202L85.5408 121.627L85.5708 121.657C85.591 121.689 85.6144 121.72 85.6407 121.747C85.6807 121.787 85.7207 121.817 85.7607 121.857C85.7907 121.877 85.8006 121.907 85.8306 121.917C85.8423 121.925 85.8566 121.929 85.8706 121.927C85.9792 121.983 86.0987 122.013 86.2205 122.017H108.923C109.044 122.013 109.164 121.983 109.272 121.927C109.302 121.907 109.322 121.887 109.352 121.867C109.433 121.816 109.502 121.748 109.552 121.667C109.562 121.647 109.582 121.637 109.602 121.617L120.898 101.962ZM108.413 120.447H87.5201L97.9663 102.352H118.859L108.413 120.447ZM61.9291 120.447H41.0365L63.3786 81.7573H84.2712L61.9291 120.447ZM17.7947 80.1777L28.241 62.0824H72.9153L62.4689 80.1777H17.7947ZM16.4352 43.2072L26.8815 61.3026L16.4352 79.3979L5.9888 61.3026L16.4352 43.2072ZM29.2306 21.0329L39.677 2.93754L62.0191 41.6276L51.5728 59.723L29.2306 21.0329ZM86.1706 2.94754L96.6169 21.0429L74.2848 59.733L63.8384 41.6376L86.1706 2.94754ZM108.413 2.15775L118.859 20.2531H97.9663L87.5201 2.15775H108.413ZM131.665 42.4274L142.111 60.5228H97.4366L86.9902 42.4274H131.665ZM85.6207 43.2072L95.6072 60.5128H75.6243L85.6207 43.2072ZM72.9153 60.5128H52.9323L62.9188 43.2072L72.9153 60.5128ZM74.2748 62.8722L84.2612 80.1777H64.2783L74.2748 62.8722ZM75.6343 62.0924H96.5169L118.849 100.782H97.9563L75.6343 62.0924ZM98.3362 62.0924H142.101L131.655 80.1877H108.773L98.3362 62.0924ZM86.9902 40.8478L97.9764 21.8227H118.869L107.883 40.8478H86.9902ZM62.9188 40.068L41.0365 2.15775H61.9291L73.3751 21.9727L62.9188 40.068ZM50.2033 60.5128H28.231L17.7847 42.4174H39.7569L50.2033 60.5128ZM61.5593 81.7573L39.677 119.668L29.2306 101.572L40.6666 81.7573H61.5593ZM85.6207 82.5371L96.6068 101.562L86.1606 119.658L75.1745 100.623L85.6207 82.5371Z" fill="white"/>
</g>
<defs>
<filter id="filter0_d_5_114" x="0.359375" y="0.59375" width="147.891" height="129.438" filterUnits="userSpaceOnUse" color-interpolation-filters="sRGB">
<feFlood flood-opacity="0" result="BackgroundImageFix"/>
<feColorMatrix in="SourceAlpha" type="matrix" values="0 0 0 0 0 0 0 0 0 0 0 0 0 0 0 0 0 0 127 0" result="hardAlpha"/>
<feOffset dy="4"/>
<feGaussianBlur stdDeviation="2"/>
<feComposite in2="hardAlpha" operator="out"/>
<feColorMatrix type="matrix" values="0 0 0 0 0 0 0 0 0 0 0 0 0 0 0 0 0 0 0.25 0"/>
<feBlend mode="normal" in2="BackgroundImageFix" result="effect1_dropShadow_5_114"/>
<feBlend mode="normal" in="SourceGraphic" in2="effect1_dropShadow_5_114" result="shape"/>
</filter>
<clipPath id="clip0_5_114">
<rect width="139.891" height="121.438" fill="white" transform="translate(4.35938 0.59375)"/>
</clipPath>
</defs>
</svg>
